# xmcd CD database file
#
# Track frame offsets:
#	150
#	4065
#	61211
#	85726
#	111336
#	134936
#	182915
#	203866
#
# Disc length: 3007 seconds
#
# Revision: 0
# Processed by: cddbd v1.5.2PL0 Copyright (c) Steve Scherf et al.
# Submitted via: CDex 1.70beta2
#
DISCID=710bbd08
DTITLE=Thelonious Monk - Monk's Music
DYEAR=1957
DGENRE=Jazz
TTITLE0=Abide With Me
TTITLE1=Well You Needn't
TTITLE2=Ruby My Dear
TTITLE3=Off Minor #5
TTITLE4=Off Minor #4
TTITLE5=Epistrophy
TTITLE6=Crepuscule With Nellie #6
TTITLE7=Crepuscule With Nellie #4,5
EXTD=YEAR: 1957
EXTT0=
EXTT1=
EXTT2=
EXTT3=
EXTT4=
EXTT5=
EXTT6=
EXTT7=
PLAYORDER=
